ISO-10303-21;
HEADER;
/* Generated by software containing ST-Developer
 * from STEP Tools, Inc. (www.steptools.com) 
 */
/* OPTION: strings as raw bytes, not using required /X/ escapes */

FILE_DESCRIPTION(
/* description */ ('Unknown'),
/* implementation_level */ '2;1');

FILE_NAME(
/* name */ 'Coupling_4mmShaft',
/* time_stamp */ '2021-03-30T20:09:12-03:00',
/* author */ ('Unknown'),
/* organization */ ('Unknown'),
/* preprocessor_version */ 'ST-DEVELOPER v16.7',
/* originating_system */ 'Solid Edge',
/* authorisation */ 'Unknown');

FILE_SCHEMA (('AUTOMOTIVE_DESIGN {1 0 10303 214 3 1 1}'));
ENDSEC;

DATA;
#10=PROPERTY_DEFINITION_REPRESENTATION(#14,#12);
#11=PROPERTY_DEFINITION_REPRESENTATION(#15,#13);
#12=REPRESENTATION('',(#16),#753);
#13=REPRESENTATION('',(#17),#753);
#14=PROPERTY_DEFINITION('pmi validation property','',#758);
#15=PROPERTY_DEFINITION('pmi validation property','',#758);
#16=VALUE_REPRESENTATION_ITEM('number of annotations',COUNT_MEASURE(0.));
#17=VALUE_REPRESENTATION_ITEM('number of views',COUNT_MEASURE(0.));
#18=SHAPE_REPRESENTATION_RELATIONSHIP('','',#503,#19);
#19=ADVANCED_BREP_SHAPE_REPRESENTATION('',(#501),#753);
#20=CONICAL_SURFACE('',#537,2.317,0.785398163397448);
#21=CONICAL_SURFACE('',#538,4.00000000000001,0.785398163397448);
#22=CONICAL_SURFACE('',#539,2.25,0.785398163397448);
#23=B_SPLINE_CURVE_WITH_KNOTS('',3,(#704,#705,#706,#707,#708,#709,#710,
#711,#712,#713,#714),.UNSPECIFIED.,.T.,.F.,(1,1,1,1,1,1,1,1,1,1,1,1,1,1,
1),(-0.00290019975409422,-0.00193346650272948,-0.000966733251364742,0.,
0.000966733251364741,0.00193346650272948,0.00290019975409422,0.00386693300545897,
0.00483366625682371,0.00580039950818845,0.00676713275955319,0.00773386601091793,
0.00870059926228267,0.00966733251364741,0.0106340657650122),
 .UNSPECIFIED.);
#24=B_SPLINE_CURVE_WITH_KNOTS('',3,(#724,#725,#726,#727,#728,#729,#730,
#731,#732,#733,#734,#735,#736),.UNSPECIFIED.,.T.,.F.,(1,1,1,1,1,1,1,1,1,
1,1,1,1,1,1,1,1),(-0.00197180034842955,-0.000985900174214775,-0.000492950087107388,
0.,0.000985900174214775,0.00197180034842955,0.00295770052264433,0.00345065060975171,
0.0039436006968591,0.00492950087107388,0.00591540104528865,0.00690130121950343,
0.00739425130661081,0.0078872013937182,0.00887310156793298,0.00985900174214775,
0.0108449019163625),.UNSPECIFIED.);
#25=CYLINDRICAL_SURFACE('',#525,4.00000000000001);
#26=CYLINDRICAL_SURFACE('',#530,2.);
#27=CYLINDRICAL_SURFACE('',#535,2.067);
#28=CYLINDRICAL_SURFACE('',#540,1.2295);
#29=CIRCLE('',#506,4.00000000000001);
#30=CIRCLE('',#508,4.00000000000001);
#31=CIRCLE('',#510,4.00000000000001);
#32=CIRCLE('',#512,4.00000000000001);
#33=CIRCLE('',#514,4.00000000000001);
#34=CIRCLE('',#522,2.317);
#35=CIRCLE('',#524,4.00000000000001);
#36=CIRCLE('',#526,4.00000000000001);
#37=CIRCLE('',#528,3.75);
#38=CIRCLE('',#529,2.25);
#39=CIRCLE('',#531,2.);
#40=CIRCLE('',#532,2.);
#41=CIRCLE('',#534,2.067);
#42=CIRCLE('',#536,2.067);
#43=ORIENTED_EDGE('',*,*,#123,.T.);
#44=ORIENTED_EDGE('',*,*,#124,.T.);
#45=ORIENTED_EDGE('',*,*,#125,.T.);
#46=ORIENTED_EDGE('',*,*,#126,.T.);
#47=ORIENTED_EDGE('',*,*,#127,.T.);
#48=ORIENTED_EDGE('',*,*,#128,.T.);
#49=ORIENTED_EDGE('',*,*,#129,.T.);
#50=ORIENTED_EDGE('',*,*,#130,.T.);
#51=ORIENTED_EDGE('',*,*,#131,.T.);
#52=ORIENTED_EDGE('',*,*,#132,.T.);
#53=ORIENTED_EDGE('',*,*,#133,.T.);
#54=ORIENTED_EDGE('',*,*,#134,.T.);
#55=ORIENTED_EDGE('',*,*,#135,.T.);
#56=ORIENTED_EDGE('',*,*,#136,.T.);
#57=ORIENTED_EDGE('',*,*,#137,.T.);
#58=ORIENTED_EDGE('',*,*,#138,.F.);
#59=ORIENTED_EDGE('',*,*,#139,.T.);
#60=ORIENTED_EDGE('',*,*,#140,.T.);
#61=ORIENTED_EDGE('',*,*,#141,.F.);
#62=ORIENTED_EDGE('',*,*,#137,.F.);
#63=ORIENTED_EDGE('',*,*,#123,.F.);
#64=ORIENTED_EDGE('',*,*,#142,.T.);
#65=ORIENTED_EDGE('',*,*,#143,.T.);
#66=ORIENTED_EDGE('',*,*,#139,.F.);
#67=ORIENTED_EDGE('',*,*,#144,.F.);
#68=ORIENTED_EDGE('',*,*,#126,.F.);
#69=ORIENTED_EDGE('',*,*,#145,.T.);
#70=ORIENTED_EDGE('',*,*,#146,.T.);
#71=ORIENTED_EDGE('',*,*,#142,.F.);
#72=ORIENTED_EDGE('',*,*,#125,.F.);
#73=ORIENTED_EDGE('',*,*,#129,.F.);
#74=ORIENTED_EDGE('',*,*,#147,.T.);
#75=ORIENTED_EDGE('',*,*,#148,.T.);
#76=ORIENTED_EDGE('',*,*,#145,.F.);
#77=ORIENTED_EDGE('',*,*,#128,.F.);
#78=ORIENTED_EDGE('',*,*,#132,.F.);
#79=ORIENTED_EDGE('',*,*,#149,.T.);
#80=ORIENTED_EDGE('',*,*,#150,.T.);
#81=ORIENTED_EDGE('',*,*,#147,.F.);
#82=ORIENTED_EDGE('',*,*,#131,.F.);
#83=ORIENTED_EDGE('',*,*,#135,.F.);
#84=ORIENTED_EDGE('',*,*,#141,.T.);
#85=ORIENTED_EDGE('',*,*,#151,.T.);
#86=ORIENTED_EDGE('',*,*,#149,.F.);
#87=ORIENTED_EDGE('',*,*,#134,.F.);
#88=ORIENTED_EDGE('',*,*,#152,.T.);
#89=ORIENTED_EDGE('',*,*,#140,.F.);
#90=ORIENTED_EDGE('',*,*,#143,.F.);
#91=ORIENTED_EDGE('',*,*,#146,.F.);
#92=ORIENTED_EDGE('',*,*,#148,.F.);
#93=ORIENTED_EDGE('',*,*,#150,.F.);
#94=ORIENTED_EDGE('',*,*,#151,.F.);
#95=ORIENTED_EDGE('',*,*,#138,.T.);
#96=ORIENTED_EDGE('',*,*,#153,.T.);
#97=ORIENTED_EDGE('',*,*,#144,.T.);
#98=ORIENTED_EDGE('',*,*,#154,.F.);
#99=ORIENTED_EDGE('',*,*,#155,.T.);
#100=ORIENTED_EDGE('',*,*,#124,.F.);
#101=ORIENTED_EDGE('',*,*,#153,.F.);
#102=ORIENTED_EDGE('',*,*,#136,.F.);
#103=ORIENTED_EDGE('',*,*,#133,.F.);
#104=ORIENTED_EDGE('',*,*,#130,.F.);
#105=ORIENTED_EDGE('',*,*,#127,.F.);
#106=ORIENTED_EDGE('',*,*,#156,.T.);
#107=ORIENTED_EDGE('',*,*,#157,.T.);
#108=ORIENTED_EDGE('',*,*,#158,.T.);
#109=ORIENTED_EDGE('',*,*,#159,.T.);
#110=ORIENTED_EDGE('',*,*,#160,.T.);
#111=ORIENTED_EDGE('',*,*,#161,.T.);
#112=ORIENTED_EDGE('',*,*,#160,.F.);
#113=ORIENTED_EDGE('',*,*,#162,.T.);
#114=ORIENTED_EDGE('',*,*,#161,.F.);
#115=ORIENTED_EDGE('',*,*,#162,.F.);
#116=ORIENTED_EDGE('',*,*,#152,.F.);
#117=ORIENTED_EDGE('',*,*,#156,.F.);
#118=ORIENTED_EDGE('',*,*,#155,.F.);
#119=ORIENTED_EDGE('',*,*,#159,.F.);
#120=ORIENTED_EDGE('',*,*,#157,.F.);
#121=ORIENTED_EDGE('',*,*,#158,.F.);
#122=ORIENTED_EDGE('',*,*,#154,.T.);
#123=EDGE_CURVE('',#163,#164,#191,.T.);
#124=EDGE_CURVE('',#164,#165,#29,.T.);
#125=EDGE_CURVE('',#165,#163,#192,.T.);
#126=EDGE_CURVE('',#166,#165,#193,.T.);
#127=EDGE_CURVE('',#165,#167,#30,.T.);
#128=EDGE_CURVE('',#167,#166,#194,.T.);
#129=EDGE_CURVE('',#168,#167,#195,.T.);
#130=EDGE_CURVE('',#167,#169,#31,.T.);
#131=EDGE_CURVE('',#169,#168,#196,.T.);
#132=EDGE_CURVE('',#170,#169,#197,.T.);
#133=EDGE_CURVE('',#169,#171,#32,.T.);
#134=EDGE_CURVE('',#171,#170,#198,.T.);
#135=EDGE_CURVE('',#172,#171,#199,.T.);
#136=EDGE_CURVE('',#171,#173,#33,.T.);
#137=EDGE_CURVE('',#173,#172,#200,.T.);
#138=EDGE_CURVE('',#174,#173,#201,.T.);
#139=EDGE_CURVE('',#174,#175,#202,.T.);
#140=EDGE_CURVE('',#175,#176,#203,.T.);
#141=EDGE_CURVE('',#172,#176,#204,.T.);
#142=EDGE_CURVE('',#163,#177,#205,.T.);
#143=EDGE_CURVE('',#177,#175,#206,.T.);
#144=EDGE_CURVE('',#164,#174,#207,.T.);
#145=EDGE_CURVE('',#166,#178,#208,.T.);
#146=EDGE_CURVE('',#178,#177,#209,.T.);
#147=EDGE_CURVE('',#168,#179,#210,.T.);
#148=EDGE_CURVE('',#179,#178,#211,.T.);
#149=EDGE_CURVE('',#170,#180,#212,.T.);
#150=EDGE_CURVE('',#180,#179,#213,.T.);
#151=EDGE_CURVE('',#176,#180,#214,.T.);
#152=EDGE_CURVE('',#181,#181,#34,.T.);
#153=EDGE_CURVE('',#173,#164,#35,.T.);
#154=EDGE_CURVE('',#182,#182,#23,.T.);
#155=EDGE_CURVE('',#183,#183,#36,.T.);
#156=EDGE_CURVE('',#184,#184,#37,.F.);
#157=EDGE_CURVE('',#185,#185,#38,.T.);
#158=EDGE_CURVE('',#186,#186,#24,.T.);
#159=EDGE_CURVE('',#187,#187,#39,.F.);
#160=EDGE_CURVE('',#188,#188,#40,.F.);
#161=EDGE_CURVE('',#189,#189,#41,.F.);
#162=EDGE_CURVE('',#190,#190,#42,.F.);
#163=VERTEX_POINT('',#642);
#164=VERTEX_POINT('',#643);
#165=VERTEX_POINT('',#645);
#166=VERTEX_POINT('',#649);
#167=VERTEX_POINT('',#651);
#168=VERTEX_POINT('',#655);
#169=VERTEX_POINT('',#657);
#170=VERTEX_POINT('',#661);
#171=VERTEX_POINT('',#663);
#172=VERTEX_POINT('',#667);
#173=VERTEX_POINT('',#669);
#174=VERTEX_POINT('',#673);
#175=VERTEX_POINT('',#675);
#176=VERTEX_POINT('',#677);
#177=VERTEX_POINT('',#681);
#178=VERTEX_POINT('',#686);
#179=VERTEX_POINT('',#690);
#180=VERTEX_POINT('',#694);
#181=VERTEX_POINT('',#700);
#182=VERTEX_POINT('',#715);
#183=VERTEX_POINT('',#717);
#184=VERTEX_POINT('',#720);
#185=VERTEX_POINT('',#722);
#186=VERTEX_POINT('',#737);
#187=VERTEX_POINT('',#739);
#188=VERTEX_POINT('',#741);
#189=VERTEX_POINT('',#744);
#190=VERTEX_POINT('',#747);
#191=LINE('',#641,#215);
#192=LINE('',#646,#216);
#193=LINE('',#648,#217);
#194=LINE('',#652,#218);
#195=LINE('',#654,#219);
#196=LINE('',#658,#220);
#197=LINE('',#660,#221);
#198=LINE('',#664,#222);
#199=LINE('',#666,#223);
#200=LINE('',#670,#224);
#201=LINE('',#672,#225);
#202=LINE('',#674,#226);
#203=LINE('',#676,#227);
#204=LINE('',#678,#228);
#205=LINE('',#680,#229);
#206=LINE('',#682,#230);
#207=LINE('',#683,#231);
#208=LINE('',#685,#232);
#209=LINE('',#687,#233);
#210=LINE('',#689,#234);
#211=LINE('',#691,#235);
#212=LINE('',#693,#236);
#213=LINE('',#695,#237);
#214=LINE('',#697,#238);
#215=VECTOR('',#545,1000.);
#216=VECTOR('',#548,1000.);
#217=VECTOR('',#551,1000.);
#218=VECTOR('',#554,1000.);
#219=VECTOR('',#557,1000.);
#220=VECTOR('',#560,1000.);
#221=VECTOR('',#563,1000.);
#222=VECTOR('',#566,1000.);
#223=VECTOR('',#569,1000.);
#224=VECTOR('',#572,1000.);
#225=VECTOR('',#575,1000.);
#226=VECTOR('',#576,1000.);
#227=VECTOR('',#577,1000.);
#228=VECTOR('',#578,1000.);
#229=VECTOR('',#581,1000.);
#230=VECTOR('',#582,1000.);
#231=VECTOR('',#583,1000.);
#232=VECTOR('',#586,1000.);
#233=VECTOR('',#587,1000.);
#234=VECTOR('',#590,1000.);
#235=VECTOR('',#591,1000.);
#236=VECTOR('',#594,1000.);
#237=VECTOR('',#595,1000.);
#238=VECTOR('',#598,1000.);
#239=EDGE_LOOP('',(#43,#44,#45));
#240=EDGE_LOOP('',(#46,#47,#48));
#241=EDGE_LOOP('',(#49,#50,#51));
#242=EDGE_LOOP('',(#52,#53,#54));
#243=EDGE_LOOP('',(#55,#56,#57));
#244=EDGE_LOOP('',(#58,#59,#60,#61,#62));
#245=EDGE_LOOP('',(#63,#64,#65,#66,#67));
#246=EDGE_LOOP('',(#68,#69,#70,#71,#72));
#247=EDGE_LOOP('',(#73,#74,#75,#76,#77));
#248=EDGE_LOOP('',(#78,#79,#80,#81,#82));
#249=EDGE_LOOP('',(#83,#84,#85,#86,#87));
#250=EDGE_LOOP('',(#88));
#251=EDGE_LOOP('',(#89,#90,#91,#92,#93,#94));
#252=EDGE_LOOP('',(#95,#96,#97));
#253=EDGE_LOOP('',(#98));
#254=EDGE_LOOP('',(#99));
#255=EDGE_LOOP('',(#100,#101,#102,#103,#104,#105));
#256=EDGE_LOOP('',(#106));
#257=EDGE_LOOP('',(#107));
#258=EDGE_LOOP('',(#108));
#259=EDGE_LOOP('',(#109));
#260=EDGE_LOOP('',(#110));
#261=EDGE_LOOP('',(#111));
#262=EDGE_LOOP('',(#112));
#263=EDGE_LOOP('',(#113));
#264=EDGE_LOOP('',(#114));
#265=EDGE_LOOP('',(#115));
#266=EDGE_LOOP('',(#116));
#267=EDGE_LOOP('',(#117));
#268=EDGE_LOOP('',(#118));
#269=EDGE_LOOP('',(#119));
#270=EDGE_LOOP('',(#120));
#271=EDGE_LOOP('',(#121));
#272=EDGE_LOOP('',(#122));
#273=FACE_BOUND('',#239,.T.);
#274=FACE_BOUND('',#240,.T.);
#275=FACE_BOUND('',#241,.T.);
#276=FACE_BOUND('',#242,.T.);
#277=FACE_BOUND('',#243,.T.);
#278=FACE_BOUND('',#244,.T.);
#279=FACE_BOUND('',#245,.T.);
#280=FACE_BOUND('',#246,.T.);
#281=FACE_BOUND('',#247,.T.);
#282=FACE_BOUND('',#248,.T.);
#283=FACE_BOUND('',#249,.T.);
#284=FACE_BOUND('',#250,.T.);
#285=FACE_BOUND('',#251,.T.);
#286=FACE_BOUND('',#252,.T.);
#287=FACE_BOUND('',#253,.T.);
#288=FACE_BOUND('',#254,.T.);
#289=FACE_BOUND('',#255,.T.);
#290=FACE_BOUND('',#256,.T.);
#291=FACE_BOUND('',#257,.T.);
#292=FACE_BOUND('',#258,.T.);
#293=FACE_BOUND('',#259,.T.);
#294=FACE_BOUND('',#260,.T.);
#295=FACE_BOUND('',#261,.T.);
#296=FACE_BOUND('',#262,.T.);
#297=FACE_BOUND('',#263,.T.);
#298=FACE_BOUND('',#264,.T.);
#299=FACE_BOUND('',#265,.T.);
#300=FACE_BOUND('',#266,.T.);
#301=FACE_BOUND('',#267,.T.);
#302=FACE_BOUND('',#268,.T.);
#303=FACE_BOUND('',#269,.T.);
#304=FACE_BOUND('',#270,.T.);
#305=FACE_BOUND('',#271,.T.);
#306=FACE_BOUND('',#272,.T.);
#307=PLANE('',#505);
#308=PLANE('',#507);
#309=PLANE('',#509);
#310=PLANE('',#511);
#311=PLANE('',#513);
#312=PLANE('',#515);
#313=PLANE('',#516);
#314=PLANE('',#517);
#315=PLANE('',#518);
#316=PLANE('',#519);
#317=PLANE('',#520);
#318=PLANE('',#521);
#319=PLANE('',#523);
#320=PLANE('',#527);
#321=PLANE('',#533);
#322=STYLED_ITEM('',(#344),#478);
#323=STYLED_ITEM('',(#345),#479);
#324=STYLED_ITEM('',(#346),#480);
#325=STYLED_ITEM('',(#347),#481);
#326=STYLED_ITEM('',(#348),#482);
#327=STYLED_ITEM('',(#349),#483);
#328=STYLED_ITEM('',(#350),#484);
#329=STYLED_ITEM('',(#351),#485);
#330=STYLED_ITEM('',(#352),#486);
#331=STYLED_ITEM('',(#353),#487);
#332=STYLED_ITEM('',(#354),#488);
#333=STYLED_ITEM('',(#355),#489);
#334=STYLED_ITEM('',(#356),#490);
#335=STYLED_ITEM('',(#357),#491);
#336=STYLED_ITEM('',(#358),#492);
#337=STYLED_ITEM('',(#359),#493);
#338=STYLED_ITEM('',(#360),#494);
#339=STYLED_ITEM('',(#361),#495);
#340=STYLED_ITEM('',(#362),#496);
#341=STYLED_ITEM('',(#363),#497);
#342=STYLED_ITEM('',(#364),#498);
#343=STYLED_ITEM('',(#365),#499);
#344=PRESENTATION_STYLE_ASSIGNMENT((#366));
#345=PRESENTATION_STYLE_ASSIGNMENT((#367));
#346=PRESENTATION_STYLE_ASSIGNMENT((#368));
#347=PRESENTATION_STYLE_ASSIGNMENT((#369));
#348=PRESENTATION_STYLE_ASSIGNMENT((#370));
#349=PRESENTATION_STYLE_ASSIGNMENT((#371));
#350=PRESENTATION_STYLE_ASSIGNMENT((#372));
#351=PRESENTATION_STYLE_ASSIGNMENT((#373));
#352=PRESENTATION_STYLE_ASSIGNMENT((#374));
#353=PRESENTATION_STYLE_ASSIGNMENT((#375));
#354=PRESENTATION_STYLE_ASSIGNMENT((#376));
#355=PRESENTATION_STYLE_ASSIGNMENT((#377));
#356=PRESENTATION_STYLE_ASSIGNMENT((#378));
#357=PRESENTATION_STYLE_ASSIGNMENT((#379));
#358=PRESENTATION_STYLE_ASSIGNMENT((#380));
#359=PRESENTATION_STYLE_ASSIGNMENT((#381));
#360=PRESENTATION_STYLE_ASSIGNMENT((#382));
#361=PRESENTATION_STYLE_ASSIGNMENT((#383));
#362=PRESENTATION_STYLE_ASSIGNMENT((#384));
#363=PRESENTATION_STYLE_ASSIGNMENT((#385));
#364=PRESENTATION_STYLE_ASSIGNMENT((#386));
#365=PRESENTATION_STYLE_ASSIGNMENT((#387));
#366=SURFACE_STYLE_USAGE(.BOTH.,#388);
#367=SURFACE_STYLE_USAGE(.BOTH.,#389);
#368=SURFACE_STYLE_USAGE(.BOTH.,#390);
#369=SURFACE_STYLE_USAGE(.BOTH.,#391);
#370=SURFACE_STYLE_USAGE(.BOTH.,#392);
#371=SURFACE_STYLE_USAGE(.BOTH.,#393);
#372=SURFACE_STYLE_USAGE(.BOTH.,#394);
#373=SURFACE_STYLE_USAGE(.BOTH.,#395);
#374=SURFACE_STYLE_USAGE(.BOTH.,#396);
#375=SURFACE_STYLE_USAGE(.BOTH.,#397);
#376=SURFACE_STYLE_USAGE(.BOTH.,#398);
#377=SURFACE_STYLE_USAGE(.BOTH.,#399);
#378=SURFACE_STYLE_USAGE(.BOTH.,#400);
#379=SURFACE_STYLE_USAGE(.BOTH.,#401);
#380=SURFACE_STYLE_USAGE(.BOTH.,#402);
#381=SURFACE_STYLE_USAGE(.BOTH.,#403);
#382=SURFACE_STYLE_USAGE(.BOTH.,#404);
#383=SURFACE_STYLE_USAGE(.BOTH.,#405);
#384=SURFACE_STYLE_USAGE(.BOTH.,#406);
#385=SURFACE_STYLE_USAGE(.BOTH.,#407);
#386=SURFACE_STYLE_USAGE(.BOTH.,#408);
#387=SURFACE_STYLE_USAGE(.BOTH.,#409);
#388=SURFACE_SIDE_STYLE('',(#410));
#389=SURFACE_SIDE_STYLE('',(#411));
#390=SURFACE_SIDE_STYLE('',(#412));
#391=SURFACE_SIDE_STYLE('',(#413));
#392=SURFACE_SIDE_STYLE('',(#414));
#393=SURFACE_SIDE_STYLE('',(#415));
#394=SURFACE_SIDE_STYLE('',(#416));
#395=SURFACE_SIDE_STYLE('',(#417));
#396=SURFACE_SIDE_STYLE('',(#418));
#397=SURFACE_SIDE_STYLE('',(#419));
#398=SURFACE_SIDE_STYLE('',(#420));
#399=SURFACE_SIDE_STYLE('',(#421));
#400=SURFACE_SIDE_STYLE('',(#422));
#401=SURFACE_SIDE_STYLE('',(#423));
#402=SURFACE_SIDE_STYLE('',(#424));
#403=SURFACE_SIDE_STYLE('',(#425));
#404=SURFACE_SIDE_STYLE('',(#426));
#405=SURFACE_SIDE_STYLE('',(#427));
#406=SURFACE_SIDE_STYLE('',(#428));
#407=SURFACE_SIDE_STYLE('',(#429));
#408=SURFACE_SIDE_STYLE('',(#430));
#409=SURFACE_SIDE_STYLE('',(#431));
#410=SURFACE_STYLE_FILL_AREA(#432);
#411=SURFACE_STYLE_FILL_AREA(#433);
#412=SURFACE_STYLE_FILL_AREA(#434);
#413=SURFACE_STYLE_FILL_AREA(#435);
#414=SURFACE_STYLE_FILL_AREA(#436);
#415=SURFACE_STYLE_FILL_AREA(#437);
#416=SURFACE_STYLE_FILL_AREA(#438);
#417=SURFACE_STYLE_FILL_AREA(#439);
#418=SURFACE_STYLE_FILL_AREA(#440);
#419=SURFACE_STYLE_FILL_AREA(#441);
#420=SURFACE_STYLE_FILL_AREA(#442);
#421=SURFACE_STYLE_FILL_AREA(#443);
#422=SURFACE_STYLE_FILL_AREA(#444);
#423=SURFACE_STYLE_FILL_AREA(#445);
#424=SURFACE_STYLE_FILL_AREA(#446);
#425=SURFACE_STYLE_FILL_AREA(#447);
#426=SURFACE_STYLE_FILL_AREA(#448);
#427=SURFACE_STYLE_FILL_AREA(#449);
#428=SURFACE_STYLE_FILL_AREA(#450);
#429=SURFACE_STYLE_FILL_AREA(#451);
#430=SURFACE_STYLE_FILL_AREA(#452);
#431=SURFACE_STYLE_FILL_AREA(#453);
#432=FILL_AREA_STYLE('',(#454));
#433=FILL_AREA_STYLE('',(#455));
#434=FILL_AREA_STYLE('',(#456));
#435=FILL_AREA_STYLE('',(#457));
#436=FILL_AREA_STYLE('',(#458));
#437=FILL_AREA_STYLE('',(#459));
#438=FILL_AREA_STYLE('',(#460));
#439=FILL_AREA_STYLE('',(#461));
#440=FILL_AREA_STYLE('',(#462));
#441=FILL_AREA_STYLE('',(#463));
#442=FILL_AREA_STYLE('',(#464));
#443=FILL_AREA_STYLE('',(#465));
#444=FILL_AREA_STYLE('',(#466));
#445=FILL_AREA_STYLE('',(#467));
#446=FILL_AREA_STYLE('',(#468));
#447=FILL_AREA_STYLE('',(#469));
#448=FILL_AREA_STYLE('',(#470));
#449=FILL_AREA_STYLE('',(#471));
#450=FILL_AREA_STYLE('',(#472));
#451=FILL_AREA_STYLE('',(#473));
#452=FILL_AREA_STYLE('',(#474));
#453=FILL_AREA_STYLE('',(#475));
#454=FILL_AREA_STYLE_COLOUR('',#476);
#455=FILL_AREA_STYLE_COLOUR('',#476);
#456=FILL_AREA_STYLE_COLOUR('',#476);
#457=FILL_AREA_STYLE_COLOUR('',#476);
#458=FILL_AREA_STYLE_COLOUR('',#476);
#459=FILL_AREA_STYLE_COLOUR('',#476);
#460=FILL_AREA_STYLE_COLOUR('',#476);
#461=FILL_AREA_STYLE_COLOUR('',#476);
#462=FILL_AREA_STYLE_COLOUR('',#476);
#463=FILL_AREA_STYLE_COLOUR('',#476);
#464=FILL_AREA_STYLE_COLOUR('',#476);
#465=FILL_AREA_STYLE_COLOUR('',#476);
#466=FILL_AREA_STYLE_COLOUR('',#476);
#467=FILL_AREA_STYLE_COLOUR('',#476);
#468=FILL_AREA_STYLE_COLOUR('',#476);
#469=FILL_AREA_STYLE_COLOUR('',#476);
#470=FILL_AREA_STYLE_COLOUR('',#476);
#471=FILL_AREA_STYLE_COLOUR('',#477);
#472=FILL_AREA_STYLE_COLOUR('',#476);
#473=FILL_AREA_STYLE_COLOUR('',#476);
#474=FILL_AREA_STYLE_COLOUR('',#476);
#475=FILL_AREA_STYLE_COLOUR('',#477);
#476=COLOUR_RGB('',0.449999988079071,0.333433717489243,0.224999994039536);
#477=COLOUR_RGB('',0.1875,0.75,0.581249892711639);
#478=ADVANCED_FACE('',(#273),#307,.T.);
#479=ADVANCED_FACE('',(#274),#308,.T.);
#480=ADVANCED_FACE('',(#275),#309,.T.);
#481=ADVANCED_FACE('',(#276),#310,.T.);
#482=ADVANCED_FACE('',(#277),#311,.T.);
#483=ADVANCED_FACE('',(#278),#312,.F.);
#484=ADVANCED_FACE('',(#279),#313,.F.);
#485=ADVANCED_FACE('',(#280),#314,.F.);
#486=ADVANCED_FACE('',(#281),#315,.F.);
#487=ADVANCED_FACE('',(#282),#316,.F.);
#488=ADVANCED_FACE('',(#283),#317,.F.);
#489=ADVANCED_FACE('',(#284,#285),#318,.F.);
#490=ADVANCED_FACE('',(#286),#319,.T.);
#491=ADVANCED_FACE('',(#287,#288,#289),#25,.T.);
#492=ADVANCED_FACE('',(#290,#291),#320,.F.);
#493=ADVANCED_FACE('',(#292,#293,#294),#26,.F.);
#494=ADVANCED_FACE('',(#295,#296),#321,.F.);
#495=ADVANCED_FACE('',(#297,#298),#27,.F.);
#496=ADVANCED_FACE('',(#299,#300),#20,.F.);
#497=ADVANCED_FACE('',(#301,#302),#21,.T.);
#498=ADVANCED_FACE('',(#303,#304),#22,.F.);
#499=ADVANCED_FACE('',(#305,#306),#28,.F.);
#500=CLOSED_SHELL('',(#478,#479,#480,#481,#482,#483,#484,#485,#486,#487,
#488,#489,#490,#491,#492,#493,#494,#495,#496,#497,#498,#499));
#501=MANIFOLD_SOLID_BREP('',#500);
#502=SHAPE_DEFINITION_REPRESENTATION(#758,#503);
#503=SHAPE_REPRESENTATION('Coupling_4mmShaft',(#504),#753);
#504=AXIS2_PLACEMENT_3D('',#639,#541,#542);
#505=AXIS2_PLACEMENT_3D('',#640,#543,#544);
#506=AXIS2_PLACEMENT_3D('',#644,#546,#547);
#507=AXIS2_PLACEMENT_3D('',#647,#549,#550);
#508=AXIS2_PLACEMENT_3D('',#650,#552,#553);
#509=AXIS2_PLACEMENT_3D('',#653,#555,#556);
#510=AXIS2_PLACEMENT_3D('',#656,#558,#559);
#511=AXIS2_PLACEMENT_3D('',#659,#561,#562);
#512=AXIS2_PLACEMENT_3D('',#662,#564,#565);
#513=AXIS2_PLACEMENT_3D('',#665,#567,#568);
#514=AXIS2_PLACEMENT_3D('',#668,#570,#571);
#515=AXIS2_PLACEMENT_3D('',#671,#573,#574);
#516=AXIS2_PLACEMENT_3D('',#679,#579,#580);
#517=AXIS2_PLACEMENT_3D('',#684,#584,#585);
#518=AXIS2_PLACEMENT_3D('',#688,#588,#589);
#519=AXIS2_PLACEMENT_3D('',#692,#592,#593);
#520=AXIS2_PLACEMENT_3D('',#696,#596,#597);
#521=AXIS2_PLACEMENT_3D('',#698,#599,#600);
#522=AXIS2_PLACEMENT_3D('',#699,#601,#602);
#523=AXIS2_PLACEMENT_3D('',#701,#603,#604);
#524=AXIS2_PLACEMENT_3D('',#702,#605,#606);
#525=AXIS2_PLACEMENT_3D('',#703,#607,#608);
#526=AXIS2_PLACEMENT_3D('',#716,#609,#610);
#527=AXIS2_PLACEMENT_3D('',#718,#611,#612);
#528=AXIS2_PLACEMENT_3D('',#719,#613,#614);
#529=AXIS2_PLACEMENT_3D('',#721,#615,#616);
#530=AXIS2_PLACEMENT_3D('',#723,#617,#618);
#531=AXIS2_PLACEMENT_3D('',#738,#619,#620);
#532=AXIS2_PLACEMENT_3D('',#740,#621,#622);
#533=AXIS2_PLACEMENT_3D('',#742,#623,#624);
#534=AXIS2_PLACEMENT_3D('',#743,#625,#626);
#535=AXIS2_PLACEMENT_3D('',#745,#627,#628);
#536=AXIS2_PLACEMENT_3D('',#746,#629,#630);
#537=AXIS2_PLACEMENT_3D('',#748,#631,#632);
#538=AXIS2_PLACEMENT_3D('',#749,#633,#634);
#539=AXIS2_PLACEMENT_3D('',#750,#635,#636);
#540=AXIS2_PLACEMENT_3D('',#751,#637,#638);
#541=DIRECTION('',(0.,0.,1.));
#542=DIRECTION('',(1.,0.,0.));
#543=DIRECTION('',(0.,0.,1.));
#544=DIRECTION('',(1.,0.,0.));
#545=DIRECTION('',(0.5,0.866025403784438,0.));
#546=DIRECTION('',(0.,0.,-1.));
#547=DIRECTION('',(1.,0.,0.));
#548=DIRECTION('',(1.,-8.794204785317E-16,0.));
#549=DIRECTION('',(0.,0.,1.));
#550=DIRECTION('',(1.,0.,0.));
#551=DIRECTION('',(1.,-8.794204785317E-16,0.));
#552=DIRECTION('',(0.,0.,-1.));
#553=DIRECTION('',(1.,0.,0.));
#554=DIRECTION('',(0.499999999999999,-0.86602540378444,0.));
#555=DIRECTION('',(0.,0.,1.));
#556=DIRECTION('',(1.,0.,0.));
#557=DIRECTION('',(0.499999999999999,-0.86602540378444,0.));
#558=DIRECTION('',(0.,0.,-1.));
#559=DIRECTION('',(1.,0.,0.));
#560=DIRECTION('',(-0.5,-0.866025403784439,0.));
#561=DIRECTION('',(0.,0.,1.));
#562=DIRECTION('',(1.,0.,0.));
#563=DIRECTION('',(-0.5,-0.866025403784439,0.));
#564=DIRECTION('',(0.,0.,-1.));
#565=DIRECTION('',(1.,0.,0.));
#566=DIRECTION('',(-1.,-8.794204785317E-16,0.));
#567=DIRECTION('',(0.,0.,1.));
#568=DIRECTION('',(1.,0.,0.));
#569=DIRECTION('',(-1.,-8.794204785317E-16,0.));
#570=DIRECTION('',(0.,0.,-1.));
#571=DIRECTION('',(1.,0.,0.));
#572=DIRECTION('',(-0.5,0.866025403784438,0.));
#573=DIRECTION('',(-0.866025403784438,-0.5,0.));
#574=DIRECTION('',(0.5,-0.866025403784438,0.));
#575=DIRECTION('',(-0.5,0.866025403784438,0.));
#576=DIRECTION('',(0.,0.,-1.));
#577=DIRECTION('',(-0.5,0.866025403784438,0.));
#578=DIRECTION('',(0.,0.,-1.));
#579=DIRECTION('',(-0.866025403784438,0.5,0.));
#580=DIRECTION('',(-0.5,-0.866025403784438,0.));
#581=DIRECTION('',(0.,0.,-1.));
#582=DIRECTION('',(0.5,0.866025403784438,0.));
#583=DIRECTION('',(0.5,0.866025403784438,0.));
#584=DIRECTION('',(8.794204785317E-16,1.,0.));
#585=DIRECTION('',(-1.,8.794204785317E-16,0.));
#586=DIRECTION('',(0.,0.,-1.));
#587=DIRECTION('',(1.,-8.794204785317E-16,0.));
#588=DIRECTION('',(0.866025403784439,0.499999999999998,0.));
#589=DIRECTION('',(-0.499999999999999,0.86602540378444,0.));
#590=DIRECTION('',(0.,0.,-1.));
#591=DIRECTION('',(0.499999999999999,-0.86602540378444,0.));
#592=DIRECTION('',(0.866025403784438,-0.5,0.));
#593=DIRECTION('',(0.5,0.866025403784439,0.));
#594=DIRECTION('',(0.,0.,-1.));
#595=DIRECTION('',(-0.5,-0.866025403784439,0.));
#596=DIRECTION('',(8.794204785317E-16,-1.,0.));
#597=DIRECTION('',(1.,8.794204785317E-16,0.));
#598=DIRECTION('',(-1.,-8.794204785317E-16,0.));
#599=DIRECTION('',(0.,0.,1.));
#600=DIRECTION('',(1.,0.,0.));
#601=DIRECTION('',(0.,0.,1.));
#602=DIRECTION('',(1.,0.,0.));
#603=DIRECTION('',(0.,0.,1.));
#604=DIRECTION('',(1.,0.,0.));
#605=DIRECTION('',(0.,0.,-1.));
#606=DIRECTION('',(1.,0.,0.));
#607=DIRECTION('',(0.,0.,-1.));
#608=DIRECTION('',(-1.,0.,0.));
#609=DIRECTION('',(0.,0.,-1.));
#610=DIRECTION('',(-1.,0.,0.));
#611=DIRECTION('',(0.,0.,-1.));
#612=DIRECTION('',(-1.,0.,0.));
#613=DIRECTION('',(0.,0.,-1.));
#614=DIRECTION('',(-1.,0.,0.));
#615=DIRECTION('',(0.,0.,-1.));
#616=DIRECTION('',(-1.,0.,0.));
#617=DIRECTION('',(0.,0.,1.));
#618=DIRECTION('',(1.,0.,0.));
#619=DIRECTION('',(0.,0.,-1.));
#620=DIRECTION('',(-1.,0.,0.));
#621=DIRECTION('',(0.,0.,1.));
#622=DIRECTION('',(1.,0.,0.));
#623=DIRECTION('',(0.,0.,1.));
#624=DIRECTION('',(1.,0.,0.));
#625=DIRECTION('',(0.,0.,1.));
#626=DIRECTION('',(1.,0.,0.));
#627=DIRECTION('',(0.,0.,-1.));
#628=DIRECTION('',(-1.,0.,0.));
#629=DIRECTION('',(0.,0.,1.));
#630=DIRECTION('',(1.,0.,0.));
#631=DIRECTION('',(0.,0.,-1.));
#632=DIRECTION('',(-1.,0.,0.));
#633=DIRECTION('',(0.,0.,-1.));
#634=DIRECTION('',(-1.,0.,0.));
#635=DIRECTION('',(0.,0.,1.));
#636=DIRECTION('',(1.,0.,0.));
#637=DIRECTION('',(-9.38946624210725E-16,1.,0.));
#638=DIRECTION('',(-1.,-9.38946624210725E-16,0.));
#639=CARTESIAN_POINT('',(0.,0.,0.));
#640=CARTESIAN_POINT('',(0.,0.,10.));
#641=CARTESIAN_POINT('',(2.3094010767585,-3.99999999999999,9.99999999999091));
#642=CARTESIAN_POINT('',(2.3094010767585,-3.99999999999999,9.99999999999091));
#643=CARTESIAN_POINT('',(3.46410161513775,-2.,10.));
#644=CARTESIAN_POINT('',(3.30643715532042E-15,2.16840434497101E-16,10.));
#645=CARTESIAN_POINT('',(-2.11244758806385E-16,-4.00000000000001,10.));
#646=CARTESIAN_POINT('',(-2.3094010767585,-3.99999999999999,9.99999999999091));
#647=CARTESIAN_POINT('',(0.,0.,10.));
#648=CARTESIAN_POINT('',(-2.3094010767585,-3.99999999999999,9.99999999999091));
#649=CARTESIAN_POINT('',(-2.3094010767585,-3.99999999999999,9.99999999999091));
#650=CARTESIAN_POINT('',(3.30643715532042E-15,2.16840434497101E-16,10.));
#651=CARTESIAN_POINT('',(-3.46410161513776,-2.,10.));
#652=CARTESIAN_POINT('',(-4.618802153517,1.6780491634655E-14,9.99999999999091));
#653=CARTESIAN_POINT('',(0.,0.,10.));
#654=CARTESIAN_POINT('',(-4.618802153517,1.6780491634655E-14,9.99999999999091));
#655=CARTESIAN_POINT('',(-4.618802153517,1.82145964977565E-14,9.99999999999091));
#656=CARTESIAN_POINT('',(3.30643715532042E-15,2.16840434497101E-16,10.));
#657=CARTESIAN_POINT('',(-3.46410161513776,2.,10.));
#658=CARTESIAN_POINT('',(-2.3094010767585,4.,9.99999999999091));
#659=CARTESIAN_POINT('',(0.,0.,10.));
#660=CARTESIAN_POINT('',(-2.3094010767585,4.,9.99999999999091));
#661=CARTESIAN_POINT('',(-2.3094010767585,4.,9.99999999999091));
#662=CARTESIAN_POINT('',(3.30643715532042E-15,2.16840434497101E-16,10.));
#663=CARTESIAN_POINT('',(-2.11244758806386E-16,4.00000000000001,10.));
#664=CARTESIAN_POINT('',(2.3094010767585,4.00000000000001,9.99999999999091));
#665=CARTESIAN_POINT('',(0.,0.,10.));
#666=CARTESIAN_POINT('',(2.3094010767585,4.00000000000001,9.99999999999091));
#667=CARTESIAN_POINT('',(2.3094010767585,4.00000000000001,9.99999999999091));
#668=CARTESIAN_POINT('',(3.30643715532042E-15,2.16840434497101E-16,10.));
#669=CARTESIAN_POINT('',(3.46410161513776,2.,10.));
#670=CARTESIAN_POINT('',(4.61880215351701,7.30059005158792E-15,9.99999999999091));
#671=CARTESIAN_POINT('',(4.61880215351701,7.30059005158792E-15,499999.9995));
#672=CARTESIAN_POINT('',(4.61880215351701,7.30059005158792E-15,9.99999999999091));
#673=CARTESIAN_POINT('',(4.61880215351701,6.93889390390723E-15,9.99999999999091));
#674=CARTESIAN_POINT('',(4.61880215351701,7.80625564189563E-15,499999.9995));
#675=CARTESIAN_POINT('',(4.61880215351701,7.8062538417932E-15,0.));
#676=CARTESIAN_POINT('',(4.61880215351701,7.30059005158792E-15,0.));
#677=CARTESIAN_POINT('',(2.3094010767585,4.00000000000001,0.));
#678=CARTESIAN_POINT('',(2.3094010767585,4.00000000000001,499999.9995));
#679=CARTESIAN_POINT('',(2.3094010767585,-3.99999999999999,499999.9995));
#680=CARTESIAN_POINT('',(2.3094010767585,-3.99999999999999,499999.9995));
#681=CARTESIAN_POINT('',(2.3094010767585,-3.99999999999999,0.));
#682=CARTESIAN_POINT('',(2.3094010767585,-3.99999999999999,0.));
#683=CARTESIAN_POINT('',(2.3094010767585,-3.99999999999999,9.99999999999091));
#684=CARTESIAN_POINT('',(-2.3094010767585,-3.99999999999999,499999.9995));
#685=CARTESIAN_POINT('',(-2.3094010767585,-3.99999999999999,499999.9995));
#686=CARTESIAN_POINT('',(-2.3094010767585,-3.99999999999999,0.));
#687=CARTESIAN_POINT('',(-2.3094010767585,-3.99999999999999,0.));
#688=CARTESIAN_POINT('',(-4.618802153517,1.6780491634655E-14,499999.9995));
#689=CARTESIAN_POINT('',(-4.618802153517,1.73472347597681E-14,499999.9995));
#690=CARTESIAN_POINT('',(-4.618802153517,1.73472350947872E-14,0.));
#691=CARTESIAN_POINT('',(-4.618802153517,1.6780491634655E-14,0.));
#692=CARTESIAN_POINT('',(-2.3094010767585,4.,499999.9995));
#693=CARTESIAN_POINT('',(-2.3094010767585,4.,499999.9995));
#694=CARTESIAN_POINT('',(-2.3094010767585,4.,0.));
#695=CARTESIAN_POINT('',(-2.3094010767585,4.,0.));
#696=CARTESIAN_POINT('',(2.3094010767585,4.00000000000001,499999.9995));
#697=CARTESIAN_POINT('',(2.3094010767585,4.00000000000001,0.));
#698=CARTESIAN_POINT('',(0.,0.,0.));
#699=CARTESIAN_POINT('',(0.,0.,0.));
#700=CARTESIAN_POINT('',(2.317,0.,0.));
#701=CARTESIAN_POINT('',(0.,0.,10.));
#702=CARTESIAN_POINT('',(3.30643715532042E-15,2.16840434497101E-16,10.));
#703=CARTESIAN_POINT('',(3.30643715532042E-15,2.16840434497101E-16,18.));
#704=CARTESIAN_POINT('',(-0.963083605483519,3.90565440203755,13.0362034233883));
#705=CARTESIAN_POINT('',(-1.36275866633242,3.75671477590285,14.000065999801));
#706=CARTESIAN_POINT('',(-0.962881729186485,3.90560968781875,14.9635325774075));
#707=CARTESIAN_POINT('',(-0.00154174244936144,4.0472236001178,15.3626297668603));
#708=CARTESIAN_POINT('',(0.964215906853039,3.90549542512926,14.9629467721309));
#709=CARTESIAN_POINT('',(1.3621347595561,3.7568090031807,14.0007797049185));
#710=CARTESIAN_POINT('',(0.964244376617989,3.9053919747164,13.0370979046326));
#711=CARTESIAN_POINT('',(0.000135587452546607,4.04723839070412,12.6374247171445));
#712=CARTESIAN_POINT('',(-0.963083605483519,3.90565440203755,13.0362034233883));
#713=CARTESIAN_POINT('',(-1.36275866633242,3.75671477590285,14.000065999801));
#714=CARTESIAN_POINT('',(-0.962881729186485,3.90560968781875,14.9635325774075));
#715=CARTESIAN_POINT('',(-1.22949999999995,3.80635386557795,14.));
#716=CARTESIAN_POINT('',(3.30643715532042E-15,2.16840434497101E-16,17.75));
#717=CARTESIAN_POINT('',(-4.,2.16840434497101E-16,17.75));
#718=CARTESIAN_POINT('',(3.30643715532042E-15,2.16840434497101E-16,18.));
#719=CARTESIAN_POINT('',(3.30643715532042E-15,2.16840434497101E-16,18.));
#720=CARTESIAN_POINT('',(-3.75,2.16840434497101E-16,18.));
#721=CARTESIAN_POINT('',(0.,0.,18.));
#722=CARTESIAN_POINT('',(-2.25,0.,18.));
#723=CARTESIAN_POINT('',(0.,0.,-3.7562251627743));
#724=CARTESIAN_POINT('',(-1.1587261434233,1.63492302744581,13.5020798181724));
#725=CARTESIAN_POINT('',(-1.29821785368701,1.51955249116563,14.1705521157301));
#726=CARTESIAN_POINT('',(-0.964908599699578,1.81107328318558,14.954631867567));
#727=CARTESIAN_POINT('',(-0.00816952753536027,2.0934872880353,15.3676547310134));
#728=CARTESIAN_POINT('',(0.805024032623389,1.86136476005705,15.0210162189536));
#729=CARTESIAN_POINT('',(1.15723929691626,1.63601067200014,14.5003132043721));
#730=CARTESIAN_POINT('',(1.29874474410372,1.5190892972579,13.836506798899));
#731=CARTESIAN_POINT('',(0.967445047824644,1.8099252163743,13.045672369736));
#732=CARTESIAN_POINT('',(0.0071780236173695,2.09390456853886,12.6320729003818));
#733=CARTESIAN_POINT('',(-0.8059908680772,1.86100486517172,12.9795849895732));
#734=CARTESIAN_POINT('',(-1.1587261434233,1.63492302744581,13.5020798181724));
#735=CARTESIAN_POINT('',(-1.29821785368701,1.51955249116563,14.1705521157301));
#736=CARTESIAN_POINT('',(-0.964908599699578,1.81107328318558,14.954631867567));
#737=CARTESIAN_POINT('',(-1.22949999999994,1.57744405606035,14.));
#738=CARTESIAN_POINT('',(0.,0.,17.75));
#739=CARTESIAN_POINT('',(-2.,0.,17.75));
#740=CARTESIAN_POINT('',(0.,0.,10.));
#741=CARTESIAN_POINT('',(2.,0.,10.));
#742=CARTESIAN_POINT('',(0.,0.,10.));
#743=CARTESIAN_POINT('',(0.,0.,10.));
#744=CARTESIAN_POINT('',(2.067,0.,10.));
#745=CARTESIAN_POINT('',(0.,0.,21.7562251627743));
#746=CARTESIAN_POINT('',(0.,0.,0.25));
#747=CARTESIAN_POINT('',(2.067,0.,0.25));
#748=CARTESIAN_POINT('',(0.,0.,0.));
#749=CARTESIAN_POINT('',(3.30643715532042E-15,2.16840434497101E-16,17.75));
#750=CARTESIAN_POINT('',(0.,0.,18.));
#751=CARTESIAN_POINT('',(7.39881396933324E-14,-17.7562251627743,14.));
#752=MECHANICAL_DESIGN_GEOMETRIC_PRESENTATION_REPRESENTATION('',(#322,#323,
#324,#325,#326,#327,#328,#329,#330,#331,#332,#333,#334,#335,#336,#337,#338,
#339,#340,#341,#342,#343),#753);
#753=(
GEOMETRIC_REPRESENTATION_CONTEXT(3)
GLOBAL_UNCERTAINTY_ASSIGNED_CONTEXT((#754))
GLOBAL_UNIT_ASSIGNED_CONTEXT((#757,#756,#755))
REPRESENTATION_CONTEXT('Coupling_4mmShaft','TOP_LEVEL_ASSEMBLY_PART')
);
#754=UNCERTAINTY_MEASURE_WITH_UNIT(LENGTH_MEASURE(0.005),#757,
'DISTANCE_ACCURACY_VALUE','Maximum Tolerance applied to model');
#755=(
NAMED_UNIT(*)
SI_UNIT($,.STERADIAN.)
SOLID_ANGLE_UNIT()
);
#756=(
NAMED_UNIT(*)
PLANE_ANGLE_UNIT()
SI_UNIT($,.RADIAN.)
);
#757=(
LENGTH_UNIT()
NAMED_UNIT(*)
SI_UNIT(.MILLI.,.METRE.)
);
#758=PRODUCT_DEFINITION_SHAPE('','',#759);
#759=PRODUCT_DEFINITION('','',#761,#760);
#760=PRODUCT_DEFINITION_CONTEXT('',#767,'design');
#761=PRODUCT_DEFINITION_FORMATION_WITH_SPECIFIED_SOURCE('','',#763,
 .NOT_KNOWN.);
#762=PRODUCT_RELATED_PRODUCT_CATEGORY('','',(#763));
#763=PRODUCT('Coupling_4mmShaft','Coupling_4mmShaft',
'Coupling_4mmShaft',(#765));
#764=PRODUCT_CATEGORY('','');
#765=PRODUCT_CONTEXT('',#767,'mechanical');
#766=APPLICATION_PROTOCOL_DEFINITION('international standard',
'automotive_design',2010,#767);
#767=APPLICATION_CONTEXT(
'core data for automotive mechanical design processes');
ENDSEC;
END-ISO-10303-21;
