0
SECTION
2
HEADER
9
$INSUNITS
70
4
9
$ACADVER
1
AC1014
9
$HANDSEED
5
FFFF
0
ENDSEC
0
SECTION
2
TABLES
0
TABLE
2
VPORT
5
8
100
AcDbSymbolTable
0
ENDTAB
0
TABLE
2
LTYPE
5
5
100
AcDbSymbolTable
0
LTYPE
5
14
100
AcDbSymbolTableRecord
100
AcDbLinetypeTableRecord
2
BYBLOCK
70
0
0
LTYPE
5
15
100
AcDbSymbolTableRecord
100
AcDbLinetypeTableRecord
2
BYLAYER
70
0
0
LTYPE
5
16
100
AcDbSymbolTableRecord
100
AcDbLinetypeTableRecord
2
DASHED
70
0
3
Dashed __ __ __ __ __ __ __ __ __ __ __ __ __ _
72
65
73
2
40
0.75
49
0.5
74
0
49
-0.25
74
0
0
ENDTAB
0
TABLE
2
LAYER
5
2
100
AcDbSymbolTable
70
2
0
LAYER
5
50
100
AcDbSymbolTableRecord
100
AcDbLayerTableRecord
2
0
70
0
62
7
6
CONTINUOUS
0
ENDTAB
0
TABLE
2
STYLE
5
3
100
AcDbSymbolTable
70
1
0
STYLE
5
11
100
AcDbSymbolTableRecord
100
AcDbTextStyleTableRecord
2
STANDARD
70
0
0
ENDTAB
0
TABLE
2
VIEW
5
6
100
AcDbSymbolTable
70
0
0
ENDTAB
0
TABLE
2
UCS
5
7
100
AcDbSymbolTable
70
0
0
ENDTAB
0
TABLE
2
APPID
5
9
100
AcDbSymbolTable
70
2
0
APPID
5
12
100
AcDbSymbolTableRecord
100
AcDbRegAppTableRecord
2
ACAD
70
0
0
ENDTAB
0
TABLE
2
DIMSTYLE
5
A
100
AcDbSymbolTable
70
1
0
ENDTAB
0
TABLE
2
BLOCK_RECORD
5
1
100
AcDbSymbolTable
70
1
0
BLOCK_RECORD
5
1F
100
AcDbSymbolTableRecord
100
AcDbBlockTableRecord
2
*MODEL_SPACE
0
BLOCK_RECORD
5
1B
100
AcDbSymbolTableRecord
100
AcDbBlockTableRecord
2
*PAPER_SPACE
0
ENDTAB
0
ENDSEC
0
SECTION
2
BLOCKS
0
BLOCK
5
20
100
AcDbEntity
100
AcDbBlockBegin
2
*MODEL_SPACE
0
ENDBLK
5
21
100
AcDbEntity
100
AcDbBlockEnd
0
BLOCK
5
1C
100
AcDbEntity
100
AcDbBlockBegin
2
*PAPER_SPACE
0
ENDBLK
5
1D
100
AcDbEntity
100
AcDbBlockEnd
0
ENDSEC
0
SECTION
2
ENTITIES
0
CIRCLE
5
100
100
AcDbEntity
8
0
100
AcDbCircle
10
-41.000000000000007
20
-51.500000000000014
30
0
40
1.749999999999998
210
0
220
-0
230
1
0
CIRCLE
5
101
100
AcDbEntity
8
0
100
AcDbCircle
10
-9.3106668625697839e-15
20
9.9250000000000185
30
0
40
1.9519237886466798
210
0
220
-0
230
1
0
CIRCLE
5
102
100
AcDbEntity
8
0
100
AcDbCircle
10
63
20
0
30
0
40
1.7500000000000071
210
0
220
-0
230
1
0
CIRCLE
5
103
100
AcDbEntity
8
0
100
AcDbCircle
10
-51.000000000000142
20
118.9999999999999
30
0
40
1.7500000000000071
210
0
220
-0
230
1
0
CIRCLE
5
104
100
AcDbEntity
8
0
100
AcDbCircle
10
51
20
-112
30
0
40
1.7500000000000071
210
0
220
-0
230
1
0
CIRCLE
5
105
100
AcDbEntity
8
0
100
AcDbCircle
10
41.000000000000007
20
-51.500000000000014
30
0
40
1.749999999999998
210
0
220
-0
230
1
0
CIRCLE
5
106
100
AcDbEntity
8
0
100
AcDbCircle
10
25
20
-41.999999999999993
30
0
40
1.749999999999998
210
0
220
-0
230
1
0
CIRCLE
5
107
100
AcDbEntity
8
0
100
AcDbCircle
10
-41.000000000000007
20
-80.499999999999972
30
0
40
1.749999999999998
210
0
220
-0
230
1
0
CIRCLE
5
108
100
AcDbEntity
8
0
100
AcDbCircle
10
-9.668363479586469e-15
20
-9.9249999999999829
30
0
40
1.9519237886466798
210
0
220
-0
230
1
0
CIRCLE
5
109
100
AcDbEntity
8
0
100
AcDbCircle
10
-63
20
-7.747648676461092e-14
30
0
40
1.7500000000000071
210
0
220
-0
230
1
0
CIRCLE
5
110
100
AcDbEntity
8
0
100
AcDbCircle
10
51
20
118.99999999999997
30
0
40
1.7500000000000071
210
0
220
-0
230
1
0
CIRCLE
5
111
100
AcDbEntity
8
0
100
AcDbCircle
10
-50.999999999999858
20
-112.00000000000006
30
0
40
1.7500000000000071
210
0
220
-0
230
1
0
CIRCLE
5
112
100
AcDbEntity
8
0
100
AcDbCircle
10
41.000000000000007
20
-80.499999999999972
30
0
40
1.749999999999998
210
0
220
-0
230
1
0
CIRCLE
5
113
100
AcDbEntity
8
0
100
AcDbCircle
10
10
20
-41.999999999999993
30
0
40
1.7500000000000004
210
0
220
-0
230
1
0
LWPOLYLINE
5
114
100
AcDbEntity
8
0
100
AcDbPolyline
90
8
70
1
43
0.0
10
-17.294680702115052
20
54.224342076785383
10
-17.294680702115059
20
65.974342076785391
42
-0.41421356237308671
10
-16.59468070211506
20
66.674342076785393
10
5.655319297884942
20
66.674342076785379
42
-0.41421356237309459
10
6.3553192978849262
20
65.974342076785391
10
6.3553192978849431
20
54.224342076785383
42
-0.41421356237308671
10
5.655319297884942
20
53.524342076785381
10
-16.59468070211506
20
53.524342076785388
42
-0.41421356237309415
0
CIRCLE
5
115
100
AcDbEntity
8
0
100
AcDbCircle
10
-19.944680702115065
20
60.099342076785391
30
0
40
1.174999999999998
210
0
220
-0
230
1
0
CIRCLE
5
116
100
AcDbEntity
8
0
100
AcDbCircle
10
9.0053192978849381
20
60.099342076785391
30
0
40
1.1749999999999992
210
0
220
-0
230
1
0
LWPOLYLINE
5
117
100
AcDbEntity
8
0
100
AcDbPolyline
90
4
70
1
43
0.0
10
-23.999999999999993
20
-51
10
2.0000000000000018
20
-51
10
2.0000000000000044
20
-81
10
-23.999999999999993
20
-81
0
CIRCLE
5
118
100
AcDbEntity
8
0
100
AcDbCircle
10
-33
20
61.000000000000021
30
0
40
4.5000000000000018
210
0
220
-0
230
1
0
CIRCLE
5
119
100
AcDbEntity
8
0
100
AcDbCircle
10
33
20
61.000000000000007
30
0
40
4.5000000000000018
210
0
220
-0
230
1
0
LWPOLYLINE
5
120
100
AcDbEntity
8
0
100
AcDbPolyline
90
4
70
1
43
0.0
10
41.250000000000014
20
109.75000000000003
10
25.000000000000018
20
109.75000000000006
42
-0.99999999999999989
10
25
20
113.25000000000003
10
41.250000000000014
20
113.25000000000004
42
-0.99999999999999989
0
LWPOLYLINE
5
121
100
AcDbEntity
8
0
100
AcDbPolyline
90
4
70
1
43
0.0
10
-41.250000000000071
20
113.25000000000006
10
-25
20
113.25000000000004
42
-0.99999999999999989
10
-25.000000000000036
20
109.75000000000007
10
-41.250000000000036
20
109.75000000000006
42
-0.99999999999999989
0
LWPOLYLINE
5
122
100
AcDbEntity
8
0
100
AcDbPolyline
90
35
70
1
43
0.0
10
75
20
100.25000000000006
42
0.37686160803776902
10
48.864906208435855
20
129.99999999999997
10
-48.864906208435173
20
130.00000000000003
42
0.37686160803777519
10
-74.999999999999972
20
100.25000000000007
10
-75.000000000000014
20
95
10
-73.003124877939243
20
94.999999999999986
42
-0.11591613877474462
10
-53.673262695224238
20
109.25832787752027
10
-29.990362070551996
20
98.214809948911821
10
-45
20
66.026537534867842
10
-45
20
55.97346246513213
10
-29.990362070551978
20
23.785190051088186
10
-53.673262695224182
20
12.741672122479695
42
-0.11591613877474473
10
-73.003124877939229
20
27.000000000000007
10
-75
20
27.000000000000011
10
-75
20
-31.999999999999993
10
-45
20
-31.999999999999993
10
-45
20
-100
10
-73.729833462074183
20
-100
42
0.34199871311964675
10
-35.000000000000028
20
-130
10
35.00000000000022
20
-130
42
0.34199871311964736
10
73.729833462074211
20
-100.00000000000001
10
45
20
-100
10
45
20
-31.999999999999993
10
75
20
-31.999999999999989
10
75
20
27.000000000000014
10
73.003124877939214
20
27
42
-0.11591613877474473
10
53.673262695224167
20
12.741672122479715
10
29.990362070551967
20
23.785190051088193
10
44.782001231476457
20
55.50596259737091
10
45
20
55.404308102140021
10
45
20
66.026537534867799
10
29.990362070551967
20
98.214809948911821
10
53.673262695224167
20
109.25832787752032
42
-0.11591613877474462
10
73.0031248779392
20
95.000000000000028
10
74.999999999999986
20
95.000000000000014
0
ENDSEC
0
SECTION
2
OBJECTS
0
DICTIONARY
5
C
100
AcDbDictionary
3
ACAD_GROUP
350
D
3
ACAD_MLINESTYLE
350
17
0
DICTIONARY
5
D
100
AcDbDictionary
0
DICTIONARY
5
1A
330
C
100
AcDbDictionary
0
DICTIONARY
5
17
100
AcDbDictionary
0
ENDSEC
0
EOF
