0
SECTION
2
HEADER
9
$INSUNITS
70
4
9
$ACADVER
1
AC1014
9
$HANDSEED
5
FFFF
0
ENDSEC
0
SECTION
2
TABLES
0
TABLE
2
VPORT
5
8
100
AcDbSymbolTable
0
ENDTAB
0
TABLE
2
LTYPE
5
5
100
AcDbSymbolTable
0
LTYPE
5
14
100
AcDbSymbolTableRecord
100
AcDbLinetypeTableRecord
2
BYBLOCK
70
0
0
LTYPE
5
15
100
AcDbSymbolTableRecord
100
AcDbLinetypeTableRecord
2
BYLAYER
70
0
0
LTYPE
5
16
100
AcDbSymbolTableRecord
100
AcDbLinetypeTableRecord
2
DASHED
70
0
3
Dashed __ __ __ __ __ __ __ __ __ __ __ __ __ _
72
65
73
2
40
0.75
49
0.5
74
0
49
-0.25
74
0
0
ENDTAB
0
TABLE
2
LAYER
5
2
100
AcDbSymbolTable
70
2
0
LAYER
5
50
100
AcDbSymbolTableRecord
100
AcDbLayerTableRecord
2
0
70
0
62
7
6
CONTINUOUS
0
ENDTAB
0
TABLE
2
STYLE
5
3
100
AcDbSymbolTable
70
1
0
STYLE
5
11
100
AcDbSymbolTableRecord
100
AcDbTextStyleTableRecord
2
STANDARD
70
0
0
ENDTAB
0
TABLE
2
VIEW
5
6
100
AcDbSymbolTable
70
0
0
ENDTAB
0
TABLE
2
UCS
5
7
100
AcDbSymbolTable
70
0
0
ENDTAB
0
TABLE
2
APPID
5
9
100
AcDbSymbolTable
70
2
0
APPID
5
12
100
AcDbSymbolTableRecord
100
AcDbRegAppTableRecord
2
ACAD
70
0
0
ENDTAB
0
TABLE
2
DIMSTYLE
5
A
100
AcDbSymbolTable
70
1
0
ENDTAB
0
TABLE
2
BLOCK_RECORD
5
1
100
AcDbSymbolTable
70
1
0
BLOCK_RECORD
5
1F
100
AcDbSymbolTableRecord
100
AcDbBlockTableRecord
2
*MODEL_SPACE
0
BLOCK_RECORD
5
1B
100
AcDbSymbolTableRecord
100
AcDbBlockTableRecord
2
*PAPER_SPACE
0
ENDTAB
0
ENDSEC
0
SECTION
2
BLOCKS
0
BLOCK
5
20
100
AcDbEntity
100
AcDbBlockBegin
2
*MODEL_SPACE
0
ENDBLK
5
21
100
AcDbEntity
100
AcDbBlockEnd
0
BLOCK
5
1C
100
AcDbEntity
100
AcDbBlockBegin
2
*PAPER_SPACE
0
ENDBLK
5
1D
100
AcDbEntity
100
AcDbBlockEnd
0
ENDSEC
0
SECTION
2
ENTITIES
0
CIRCLE
5
100
100
AcDbEntity
8
0
100
AcDbCircle
10
12.583719644757508
20
41.750898701435986
30
0
40
1.749999999999998
210
0
220
0
230
1
0
CIRCLE
5
101
100
AcDbEntity
8
0
100
AcDbCircle
10
-25.616280355242502
20
41.750898701435986
30
0
40
1.749999999999998
210
0
220
0
230
1
0
CIRCLE
5
102
100
AcDbEntity
8
0
100
AcDbCircle
10
12.583719644757508
20
80.250898701436
30
0
40
1.7500000000000004
210
0
220
0
230
1
0
CIRCLE
5
103
100
AcDbEntity
8
0
100
AcDbCircle
10
25.583719644757505
20
41.750898701435986
30
0
40
1.749999999999998
210
0
220
0
230
1
0
CIRCLE
5
104
100
AcDbEntity
8
0
100
AcDbCircle
10
-25.616280355242502
20
80.250898701436
30
0
40
1.7500000000000027
210
0
220
0
230
1
0
CIRCLE
5
105
100
AcDbEntity
8
0
100
AcDbCircle
10
25.583719644757505
20
80.250898701436
30
0
40
1.7500000000000027
210
0
220
0
230
1
0
LWPOLYLINE
5
106
100
AcDbEntity
8
0
100
AcDbPolyline
90
4
70
1
43
0.0
10
17.75
20
115
10
17.75
20
102.19999999999999
10
-5.75
20
102.19999999999999
10
-5.75
20
115
0
CIRCLE
5
107
100
AcDbEntity
8
0
100
AcDbCircle
10
50.999999999999858
20
-112.00000000000006
30
0
40
1.7500000000000071
210
0
220
-0
230
1
0
CIRCLE
5
108
100
AcDbEntity
8
0
100
AcDbCircle
10
63
20
-7.747648676461092e-14
30
0
40
1.7500000000000071
210
0
220
-0
230
1
0
CIRCLE
5
109
100
AcDbEntity
8
0
100
AcDbCircle
10
-8.1499999999999986
20
108.59999999999999
30
0
40
1.5000000000000002
210
0
220
-0
230
1
0
CIRCLE
5
110
100
AcDbEntity
8
0
100
AcDbCircle
10
-63
20
0
30
0
40
1.7500000000000071
210
0
220
-0
230
1
0
CIRCLE
5
111
100
AcDbEntity
8
0
100
AcDbCircle
10
-51
20
118.99999999999997
30
0
40
1.7500000000000071
210
0
220
-0
230
1
0
CIRCLE
5
112
100
AcDbEntity
8
0
100
AcDbCircle
10
51.000000000000142
20
118.9999999999999
30
0
40
1.7500000000000071
210
0
220
-0
230
1
0
CIRCLE
5
113
100
AcDbEntity
8
0
100
AcDbCircle
10
-51
20
-112
30
0
40
1.7500000000000071
210
0
220
-0
230
1
0
CIRCLE
5
114
100
AcDbEntity
8
0
100
AcDbCircle
10
20.150000000000002
20
108.59999999999999
30
0
40
1.4999999999999991
210
0
220
-0
230
1
0
LWPOLYLINE
5
115
100
AcDbEntity
8
0
100
AcDbPolyline
90
35
70
1
43
0.0
10
73.003124877939243
20
95
10
75.000000000000014
20
95
10
75.000000000000014
20
100.25000000000006
42
0.37686160803777535
10
48.86490620843518
20
130.00000000000006
10
-48.864906208435841
20
129.99999999999997
42
0.37686160803776902
10
-75.000000000000014
20
100.25000000000007
10
-74.999999999999986
20
95.000000000000014
10
-73.003124877939186
20
95
42
-0.11591613877474462
10
-53.673262695224189
20
109.25832787752029
10
-29.990362070551964
20
98.214809948911821
10
-45
20
66.026537534867799
10
-45
20
55.404308102140021
10
-44.782001231476457
20
55.50596259737091
10
-29.990362070551964
20
23.78519005108819
10
-53.673262695224196
20
12.741672122479756
42
-0.11591613877474451
10
-73.0031248779392
20
27.000000000000021
10
-75
20
27.000000000000011
10
-75
20
-31.999999999999993
10
-45
20
-31.999999999999993
10
-45
20
-100
10
-73.729833462074211
20
-100
42
0.34199871311964763
10
-35.000000000000213
20
-130
10
35.000000000000043
20
-130
42
0.34199871311964664
10
73.729833462074183
20
-100
10
45
20
-100
10
45
20
-31.999999999999993
10
75
20
-31.999999999999993
10
75
20
27.000000000000011
10
73.003124877939243
20
27.000000000000011
42
-0.11591613877474552
10
53.673262695224189
20
12.741672122479706
10
29.990362070551978
20
23.78519005108819
10
45
20
55.97346246513213
10
45
20
66.026537534867842
10
29.990362070551996
20
98.214809948911821
10
53.673262695224153
20
109.25832787752016
42
-0.11591613877474451
0
CIRCLE
5
116
100
AcDbEntity
8
0
100
AcDbCircle
10
-47
20
-13
30
0
40
1.5999999999999972
210
0
220
0
230
1
0
CIRCLE
5
117
100
AcDbEntity
8
0
100
AcDbCircle
10
-47.000000000000014
20
-107.00000000000003
30
0
40
1.5999999999999972
210
0
220
0
230
1
0
CIRCLE
5
118
100
AcDbEntity
8
0
100
AcDbCircle
10
46.999999999999972
20
-107.00000000000001
30
0
40
1.5999999999999972
210
0
220
0
230
1
0
CIRCLE
5
119
100
AcDbEntity
8
0
100
AcDbCircle
10
47
20
-13.000000000000025
30
0
40
1.5999999999999972
210
0
220
0
230
1
0
ENDSEC
0
SECTION
2
OBJECTS
0
DICTIONARY
5
C
100
AcDbDictionary
3
ACAD_GROUP
350
D
3
ACAD_MLINESTYLE
350
17
0
DICTIONARY
5
D
100
AcDbDictionary
0
DICTIONARY
5
1A
330
C
100
AcDbDictionary
0
DICTIONARY
5
17
100
AcDbDictionary
0
ENDSEC
0
EOF
